<?xml version="1.0" encoding="UTF-8"?>
<svg id="_レイヤー_1" data-name="レイヤー_1" xmlns="http://www.w3.org/2000/svg" version="1.1" viewBox="0 0 1182.05 286.3">
  <!-- Generator: Adobe Illustrator 29.8.3, SVG Export Plug-In . SVG Version: 2.1.1 Build 3)  -->
  <defs>
    <style>
      .st0 {
        fill: #ff004d;
      }

      .st1 {
        fill: #fff;
      }

      .st2 {
        fill: #005cc9;
      }
    </style>
  </defs>
  <g>
    <path class="st0" d="M160,89.49h20.56c.28,0,4.3,2.37,4.81,2.84,4.87,4.59,4.79,18.85-.46,23.51-1.26,1.12-5.9,3.3-7.22,3.3h-17.69v48.78h20.56c3.36,0,7.32,6.14,7.9,9.31,3.87,20.94-11.15,21.77-27.54,19.78-1.56,7.78-.64,15.33-2.33,23.54-10.07,48.9-96.14,42.16-87.32-19.41,2.26-15.74,19.19-33.23,35.64-33.23h20.09l1.43-1.43v-47.35h-44.48c-.54,0-6.33-2.76-7.1-3.42-6.88-5.91-5.61-24.84,6.12-26.26,12.95-1.56,29.2,1.6,42.16.08,1.39-.16,2.46-.12,3.3-1.48v-20.09c0-9.36,19.3-10.99,25.75-7.58,1.5.79,5.81,6.34,5.81,7.58v21.52ZM128.44,197.57h-17.69c-.28,0-4.13,2.34-4.78,2.87-7.53,6.13-5.15,19.78,4.48,22.3,17.39,4.55,19-12.23,18-25.17ZM366.61,129.17c1.11,13.26,8.6,23.95,22.47,25.35,23.46,2.37,51.02-2.41,74.47.13s26.18,30.07,5.45,37.73c-20.37,2.07-42.6-1.34-62.75.38-7.42.63-13.78,2.67-14.81,11.01s.42,17.66,10.04,18.7c35.66-2.89,99.48,13.32,111.17-34.26,7.58-30.86-8.8-57.38-40.48-62.25-22.66-3.49-48.44.51-71.49-1.2l-1.15-.76c-2.63-7.97,6.81-31.68-2.57-35.69-3.64-1.55-21.55-1.59-24.32,1.49-3.66,4.07-6.56,33.09-6.03,39.38ZM222.65,142.1c.41,0,1.61,1.5,1.39,2.3-3.87,27.08-7.88,69.07-26.25,90.49-6.13,7.14-9.8,5.43-15.32,9.55-7.17,5.36-6.6,24.08,4.26,26.36,36,7.57,54.68-48.73,60.8-75.12,4.08-17.61,5.88-35.55,8.25-53.44l68.21-.18c11.24-2.07,11.15-25.39-.16-28.45l-65.38-.62c-3.57-2.49,5.56-25.1-8.12-27.27-3.05-.48-11.17-.45-14.31-.08-14.51,1.71-7.88,25.22-10.92,27.34-8.1,2.09-24.48-3.1-29.58,4.85-4.14,6.45-3.01,22.44,6.09,24.26,4.7.94,15.51,0,21.04,0ZM650.26,42.56c-9.48-4.67-39.25-2.45-47.87,5.83-20.03,19.81-42.94,36.85-63.18,56.38-17.17,16.58-19.96,33.99-2.99,52.3,18.28,19.72,43.69,36.85,62.34,56.74,11.24,10.31,31.44,10.03,45.92,8.67,15.74-1.47,15.48-25.42,2.99-28.89-9.98-2.77-18,2.4-27.33-4.23-18.93-13.45-36.14-35.08-55.1-49.15-11.68-8.63.2-16.02,7.18-22.51,16.66-15.51,34.28-30.19,51.34-45.26,7.98-5.16,23.17,1.62,29.65-5.27,4.96-5.28,4.35-21.01-2.95-24.6ZM14.59,77.51c2.12,41-2.75,84.68-.02,125.36,1.63,24.21,12.4,45.88,40.63,41.51,10.18-1.58,12.07-14.83,8.67-22.89-3.39-8.02-10.84-5.02-14.32-9.59-1.85-2.43-2.95-8.9-3.25-12.06-3.59-38.3,2.5-81.49-.2-120.31-1.59-12.24-11.52-13.59-22.17-11.81-5.4.9-8.64,4.36-9.34,9.79ZM401.48,70.39c20.47,2.47,47.49-3.1,67.51.4,16.08,2.82,2.53,17.71,21.59,19.53,18.29,1.75,22.33-5.98,18.05-22.82-5.55-21.85-26.08-25.78-45.86-26.83-11.93-.63-53.61-1.71-62.9,1.27-9.96,3.19-11.34,18.81-5.21,25.23,1.45,1.52,4.65,2.96,6.82,3.22ZM273.4,203.37c-9.91,1.57-11.7,21.13-10.93,29,1.3,13.35,8.2,23.19,20.67,28.1s45.42,5.73,59.09,4.08c14.88-1.79,15.34-27.86-.98-29.68-9.75-1.09-38.88,2.7-44.99-2.84-6.83-6.2,4.39-20.05-2.66-26.5-3.12-2.85-15.94-2.84-20.21-2.16ZM276.79,182.65c13.69,6.06,39.5-3.64,54.23,2.2,11.64,4.61.51,16.67,18,18.34,19.53,1.86,23.38-7.55,18.06-24.75-10.61-34.32-60.68-21.56-87.78-23.68-11.5,2.34-13.16,23.18-2.51,27.89Z"/>
    <path class="st1" d="M431.36,39.95c12.74,0,25.59.41,31.4.72,19.78,1.05,40.31,4.98,45.86,26.83,3.89,15.29.92,23.06-13.34,23.06-1.45,0-3.02-.08-4.71-.24-19.05-1.82-5.5-16.72-21.59-19.53-5.08-.89-10.6-1.19-16.36-1.19-12.55,0-26.19,1.45-38.62,1.45-4.35,0-8.56-.18-12.52-.66-2.18-.26-5.37-1.7-6.82-3.22-6.13-6.42-4.75-22.04,5.21-25.23,4.77-1.53,18.06-1.99,31.5-1.99M634.85,40.15c6.42,0,12.13.79,15.41,2.41,7.3,3.6,7.92,19.32,2.95,24.6-2.64,2.81-6.72,3.34-11.17,3.34-2.76,0-5.67-.21-8.46-.21-3.75,0-7.3.37-10.01,2.13-17.06,15.08-34.68,29.76-51.34,45.26-6.98,6.5-18.87,13.88-7.18,22.51,18.96,14.07,36.17,35.71,55.1,49.15,4.21,2.99,8.15,3.58,12.13,3.58,2.59,0,5.18-.25,7.88-.25,2.35,0,4.77.19,7.33.9,12.49,3.47,12.75,27.41-2.99,28.89-4.07.38-8.59.68-13.24.68-11.89,0-24.6-1.94-32.67-9.35-18.65-19.89-44.07-37.02-62.34-56.74-16.97-18.31-14.18-35.72,2.99-52.3,20.24-19.53,43.14-36.57,63.18-56.38,5.64-5.41,20.32-8.23,32.46-8.23M145.36,58.76c3.54,0,6.81.57,8.83,1.64,1.5.79,5.81,6.34,5.81,7.58v21.52h20.56c.28,0,4.3,2.37,4.81,2.84,4.87,4.59,4.79,18.85-.46,23.51-1.26,1.12-5.9,3.3-7.22,3.3h-17.69v48.78h20.56c3.36,0,7.32,6.14,7.9,9.31,3.05,16.47-5.6,20.5-17.41,20.5-3.2,0-6.63-.3-10.12-.72-1.56,7.78-.64,15.33-2.33,23.54-4.44,21.56-23.65,32.3-42.99,32.3-24.53,0-49.27-17.28-44.34-51.72,2.26-15.74,19.19-33.23,35.64-33.23h20.09l1.43-1.43v-47.35h-44.48c-.54,0-6.33-2.76-7.1-3.42-6.88-5.91-5.61-24.84,6.12-26.26,2.71-.33,5.56-.45,8.49-.45,8.24,0,17.13.95,25.36.95,2.87,0,5.66-.12,8.3-.43,1.39-.16,2.46-.12,3.3-1.48v-20.09c0-6.44,9.12-9.22,16.92-9.22M115.8,223.5c12.36,0,13.52-14.47,12.63-25.93h-17.69c-.28,0-4.13,2.34-4.78,2.87-7.53,6.13-5.15,19.78,4.48,22.3,1.99.52,3.77.76,5.37.76M30.86,67.08c7.73,0,14,2.93,15.24,12.45,2.7,38.82-3.39,82.01.2,120.31.3,3.16,1.4,9.63,3.25,12.06,3.48,4.57,10.94,1.57,14.32,9.59,3.4,8.06,1.51,21.32-8.67,22.89-2.47.38-4.8.57-7.01.57-23.03,0-32.13-19.98-33.61-42.07-2.73-40.68,2.14-84.36.02-125.36.7-5.43,3.94-8.89,9.34-9.79,2.37-.4,4.71-.64,6.93-.64M243.01,85.36c2.87,0,5.76.11,7.32.36,13.68,2.17,4.56,24.78,8.12,27.27l65.38.62c11.31,3.06,11.4,26.38.16,28.45l-68.21.18c-2.37,17.89-4.17,35.83-8.25,53.44-5.74,24.75-22.53,75.82-54.29,75.82-2.1,0-4.27-.22-6.51-.69-10.86-2.28-11.43-21-4.26-26.36,5.52-4.12,9.2-2.41,15.32-9.55,18.37-21.42,22.38-63.41,26.25-90.49.22-.8-.98-2.3-1.39-2.3-3.69,0-9.72.42-14.73.42-2.5,0-4.75-.1-6.31-.42-9.1-1.83-10.23-17.81-6.09-24.26,2.48-3.86,7.63-4.62,13.19-4.62,3.6,0,7.37.32,10.71.32,2.12,0,4.07-.13,5.68-.55,3.04-2.12-3.59-25.63,10.92-27.34,1.54-.18,4.26-.28,7-.28M387.03,87.26c4.37,0,8.4.38,9.93,1.04,9.38,4-.05,27.72,2.57,35.69l1.15.76c4.45.33,8.99.45,13.6.45,11.45,0,23.27-.73,34.82-.73,7.89,0,15.65.34,23.07,1.48,31.68,4.87,48.06,31.39,40.48,62.25-7.42,30.19-35.82,34.7-64.71,34.7-12.29,0-24.65-.81-35.53-.81-3.85,0-7.52.1-10.93.38-9.62-1.04-11.03-10.65-10.04-18.7,1.03-8.34,7.39-10.38,14.81-11.01,4.35-.37,8.79-.5,13.29-.5,11.18,0,22.72.82,34,.82,5.23,0,10.4-.18,15.46-.69,20.74-7.65,17.47-35.24-5.45-37.73-5.22-.57-10.64-.77-16.17-.77-14.1,0-28.94,1.32-43.01,1.32-5.23,0-10.35-.18-15.29-.68-13.87-1.4-21.36-12.09-22.47-25.35-.53-6.29,2.36-35.31,6.03-39.38,1.61-1.79,8.33-2.53,14.39-2.53M318.14,154.12c21.55,0,42.51,3.49,48.95,24.32,4.87,15.77,2.05,24.99-13.49,24.99-1.42,0-2.94-.08-4.58-.23-17.49-1.67-6.36-13.73-18-18.34-3.71-1.47-8.12-1.95-12.86-1.95-9.22,0-19.69,1.83-28.7,1.83-4.76,0-9.12-.51-12.67-2.08-10.66-4.71-8.99-25.55,2.51-27.89,2.36.19,4.9.26,7.57.26,9.38,0,20.4-.89,31.27-.89M279.74,202.99c5.31,0,11.77.62,13.87,2.54,7.05,6.45-4.16,20.3,2.66,26.5,2.77,2.51,10.27,3.11,18.55,3.11,7.43,0,15.48-.48,21.32-.48,2.01,0,3.75.06,5.12.21,16.31,1.82,15.85,27.88.98,29.68-4.19.51-10.18.78-16.83.78-15.06,0-33.53-1.42-42.26-4.86-12.48-4.91-19.38-14.75-20.67-28.1-.76-7.87,1.03-27.43,10.93-29,1.41-.22,3.74-.37,6.34-.37M431.36,26.56c-24.28,0-31.77,1.4-35.58,2.63-8.51,2.73-14.77,9.72-17.18,19.19-2.31,9.09-.6,18.78,4.33,25.59-12.88.58-17.59,3.93-20.24,6.87-2.55,2.83-5.48,7.42-7.91,26.08-1.05,8.06-1.92,18.41-1.51,23.37.57,6.78,2.38,12.91,5.22,18.16-1.67-.89-3.43-1.7-5.27-2.43-3.5-1.39-7.16-2.42-10.82-3.18,1.95-3.78,3.12-8.23,3.32-13.07.24-5.72-.94-11.5-3.31-16.26-3.24-6.52-8.6-11.07-15.09-12.83l-1.65-.45-1.71-.02-52.39-.5c.07-3.07-.08-6.35-.82-9.62-2.18-9.69-8.86-16.1-18.33-17.6-2.73-.43-6.62-.52-9.41-.52-1.62,0-5.7.04-8.56.37-9.63,1.13-16.89,7.33-19.92,17-1.12,3.57-1.56,7.23-1.74,10.56-1.33-.05-2.68-.09-4.08-.09s-3.76,0-6.53.37c-.65-7.29-3.33-13.56-7.62-17.61-.93-.88-2.02-1.71-4.87-3.39-2.58-1.52-5.25-3.1-9.12-3.1h-7.17v-8.13c0-3.89-1.49-7.41-5.13-12.13-4.11-5.32-6.8-6.74-7.81-7.28-4.99-2.64-10.96-3.19-15.09-3.19h0c-17.85,0-30.31,9.3-30.31,22.61v8.59c-3.22-.05-6.6-.24-10.15-.44-4.39-.24-8.94-.49-13.43-.49-3.76,0-7.07.18-10.1.54-9.81,1.19-17.54,8.04-20.66,18.33-.2.67-.39,1.35-.55,2.06-.08-6.04-.3-12.05-.71-17.96l-.03-.4-.05-.4c-1.96-15.1-12.62-24.11-28.52-24.11-2.84,0-5.83.27-9.14.82-11.14,1.86-18.96,10.02-20.41,21.29l-.15,1.2.06,1.2c.99,19.11.4,39.43-.17,59.09-.64,21.95-1.3,44.65.17,66.47,2.29,34.17,19.85,54.57,46.97,54.57,2.91,0,5.96-.24,9.07-.72,6.11-.95,11.38-3.99,15.19-8.71,10.79,11.06,26.34,17.35,43.16,17.35,12.64,0,24.97-3.71,34.7-10.45,11.22-7.76,18.62-19.02,21.4-32.55.9-4.38,1.2-8.46,1.39-12.16,3.98-.13,7.48-.67,10.64-1.62,5.28-1.59,9.57-4.35,12.78-8.2,5.44-6.54,7.16-15.45,5.12-26.48-1.31-7.07-8.83-20.27-21.07-20.27h-7.17v-22h4.3c.8,0,1.62-.08,2.45-.22.39,3.05,1.17,6.03,2.32,8.75,3.19,7.54,9.21,12.7,16.5,14.16,2.35.47,5.11.68,8.95.68.34,0,.68,0,1.02,0-3.34,24.23-8.23,55.01-21.31,70.27-1.5,1.75-1.88,1.9-4.01,2.7-2.19.83-5.49,2.09-9.16,4.83-4.47,3.34-7.64,8.39-9.17,14.63-1.22,4.98-1.28,10.5-.17,15.53,2.33,10.56,9.37,18.05,18.85,20.04,3.09.65,6.21.98,9.26.98,10.66,0,20.66-3.88,29.72-11.52,6.87-5.8,13.22-13.86,18.88-23.95,2.77-4.95,5.22-10.09,7.37-15.17,1.96,18.36,12.26,32.09,29.04,38.69,13.65,5.37,39.55,5.79,47.17,5.79,7.19,0,13.73-.31,18.44-.88,13.39-1.61,23.06-13.43,23-28.09-.03-6.46-2.03-12.72-5.63-17.62-4.39-5.97-10.95-9.73-18.46-10.56-1.78-.2-3.88-.29-6.6-.29-2.96,0-6.3.11-9.84.22-3.82.12-7.76.25-11.48.25-2.86,0-5.03-.08-6.68-.19,1.24-5.86,3.32-16.21-3.95-24.34.23-.02.47-.04.7-.07,4.76-.45,9.26-.87,13.27-.87,2.6,0,4.72.18,6.34.54,1.07,5.26,4.1,17.87,23.25,19.7,2.04.19,4.01.29,5.85.29,10.97,0,19.11-3.49,24.19-10.38,0-.01.02-.02.03-.04-.3,8.28,1.7,15.34,5.86,20.58,3.98,5.02,9.65,8.06,16.38,8.79l1.26.14,1.26-.1c2.78-.23,6-.33,9.84-.33,5.05,0,10.48.19,16.24.38,6.26.21,12.74.43,19.29.43,13.41,0,30.71-.8,45.6-7.08,16.89-7.11,27.7-19.83,32.11-37.82,2.01-8.17,2.64-16.24,1.95-23.95,9.51,10.05,20.58,19.37,31.29,28.39,10.42,8.77,21.19,17.84,29.9,27.13l.34.37.37.34c9.44,8.66,23.09,12.88,41.73,12.88,4.46,0,9.2-.24,14.49-.74,13.2-1.24,22.89-11.35,24.12-25.16,1.24-13.99-6.66-26.59-18.8-29.96-3.41-.95-6.87-1.39-10.91-1.39-1.68,0-3.26.08-4.66.14-1.16.06-2.26.11-3.22.11-2.42,0-3.28-.33-4.37-1.11-8.9-6.32-17.58-14.82-26.77-23.82-7.95-7.78-16.14-15.8-24.83-22.66.61-.54,1.2-1.05,1.69-1.48,1.11-.96,2.25-1.95,3.37-2.99,10.74-9.99,22.15-19.87,33.18-29.43,5.37-4.65,10.91-9.45,16.35-14.24.48-.07,1.31-.14,2.69-.14,1.16,0,2.42.05,3.76.1,1.51.06,3.08.11,4.7.11,3.78,0,13.82,0,20.93-7.56,6.86-7.3,7.65-18.92,6.25-26.66-1.63-9-6.26-15.79-13.04-19.13-5.1-2.51-12.27-3.79-21.33-3.79-4.89,0-29.87.58-41.73,11.97l-.07.07-.07.07c-10.12,10-21.36,19.59-32.24,28.87-10.26,8.75-20.86,17.79-30.82,27.41-11.2,10.81-17.37,22.26-18.34,34.03-.06.71-.1,1.42-.12,2.12-9.42-9.79-22.32-16.28-37.24-18.57-7.26-1.12-15.24-1.64-25.11-1.64-5.99,0-12.04.19-17.9.37-5.87.18-11.41.36-16.92.36-.32,0-.63,0-.94,0,.7-4.99,1.49-10.64,1.21-15.88-.26-4.87-1.44-8.62-3.04-11.51.81.01,1.64.02,2.49.02,6.58,0,13.38-.38,19.97-.74,6.55-.36,12.74-.71,18.66-.71,5.11,0,9.37.27,12.96.81,1.25,5.38,4.72,18.04,23.71,19.85,2.1.2,4.11.3,5.98.3,10.42,0,18.21-3.23,23.16-9.6,7.31-9.4,5.3-21.71,3.16-30.16-8.71-34.28-44.61-36.19-58.13-36.9-5.61-.3-18.79-.74-32.11-.74h0ZM59.23,193.67c-1.27-17.89-.56-37.36.12-56.25.3-8.4.61-16.93.76-25.45,1.19,5.23,3.72,10.22,8.02,13.91.96.83,2.27,1.81,6.57,3.87,3.61,1.73,6.03,2.78,9.26,2.78h31.09v22h-8.13c-22.19,0-42.07,19.66-47.68,39.13h0ZM382.64,190.23c0-6.82-1.89-12.91-2.77-15.75-1.1-3.57-2.54-6.87-4.31-9.88,3.71,1.7,7.8,2.8,12.17,3.25,4.99.5,10.43.75,16.63.75,7.34,0,14.84-.34,22.1-.67,7.29-.33,14.17-.65,20.92-.65,5.62,0,10.44.23,14.73.69,4.25.46,6.9,2.44,7.27,5.43.3,2.4-1.03,4.48-3.69,5.84-3.61.3-7.61.44-12.16.44-5.41,0-11.1-.2-16.6-.4-5.7-.2-11.59-.42-17.4-.42-5.36,0-10.08.18-14.43.55-4.13.35-10.26,1.21-15.69,4.56-2.21,1.36-4.69,3.37-6.78,6.26h0ZM261.53,194.39c.43-2.02.83-4.04,1.21-6.06,1.02,1.22,2.15,2.34,3.37,3.33-1.48.65-3.04,1.53-4.58,2.73h0Z"/>
  </g>
  <g>
    <path class="st2" d="M812.88,150.37v14.52h26.32c-.38-7.59-3.29-27.6,1.78-33.15,4.68-5.12,21.77-4.53,24.13,3.16l1.31,29.99h42.2c4.38,0,7.24,9.21,6.83,13.17s-4.46,9.51-8.65,9.51h-38.57l2.73,19.05c1.63,1.71,12.45-12.49,14.06-13.61,8.63-5.96,21.67,4.23,19.09,13.64-2.16,7.85-17.31,19.78-22.75,26.31-1.58,2.91,4.87,7.97,7.35,8.14,9.41.63,6.6-20.15,19.46-16.82,19.36,5,3.68,41.27-13.23,45.82-16.02,4.32-27.94-5.63-36.37-17.97-1.73-.33-19.76,14.48-26.41,15.12-8.35.8-18.89-14.07-12.42-21.52,3.45-3.98,27.42-13.99,28.38-17.93l-7.13-40.21h-28.13v13.61c6.13-.76,19.31-6.81,22.27,1.78,6.45,18.74-9.13,17.48-22.18,20.99-1.16,15.49,4.59,41.27-16.05,45.21-6.28,1.2-25.28,2.18-30.31-1.3s-6.33-15.98-3.17-20.38c4.36-6.06,16.17.38,21.3-5.01v-14.07c-10.23,2.08-27.6,8.56-29.08-6.76-1.99-20.49,16.52-11.92,29.6-16.77l-.52-17.31h-22.23c-8.97,0-12.58-13.42-6.4-20.01.57-.61,3.22-2.68,3.67-2.68h25.86v-9.99c-6.19.08-14.34,2.04-20.4.89-7.09-1.35-8.48-16.53-2.06-19.26,9.67-1.36,19.46-2.08,29.11-3.56,7.73-1.18,19.8-4.87,26.71-5.04,6.13-.15,9.73,2.47,10.88,8.58,2.4,12.84-7.47,12.21-17.02,13.85ZM763.42,36.94c-.99,0-5.51,2.53-6.41,3.57-4.31,4.97-2.39,19.11,4.59,19.11h56.71v9.98h-44.92c-9.79,0-11.77,14.73-5.44,19.05.65.44,3.19,1.82,3.62,1.82h46.73v9.98h-58.53c-1.05,0-5.48,2.43-6.3,3.68-3.97,6.07-1.33,19.81,8.07,19.05l146.99-.11c12.78-1.97,8.95-22.63.97-22.63h-59.44v-9.98h46.73c7.51,0,10.42-14.92,3.68-19.11s-40.61-1-50.41-.86c1-3.53-1.92-8.45.45-10.89h56.26c8.82,0,9.74-22.69-1.81-22.69h-21.32c1.39-4.91,5.61-8.11,4.36-13.86-1.55-7.12-16.8-10-22.78-8.63-7.09,1.62-10.5,17.07-14.83,22.37l-32.45.18c-5.86-14.76-10.28-27.58-28.93-20.72-12.4,4.56-9.41,11.45-3.38,20.67h-22.23ZM675.62,63.47h69.44c11.84,1.86,11.67,24.28.16,26.04h-70.68c-10.25-1.87-11.12-23.82,1.08-26.04ZM734.89,138.98c-7.14-1.49-39.9-1.37-47.61-.32-13.91,1.89-12.11,23-2.61,25.14,15.46-.64,32.68,1.51,47.94.23,2.08-.17,5.87-.83,7.42-2.12,5.69-4.74,4.61-20.89-5.14-22.93ZM684.67,51.27l50.57.14c10.23-1.62,10.95-22.51.57-24.96-14.93.97-35.97-2.73-50.21-.18-11.26,2.02-10.24,22.92-.93,25ZM683.97,126.37l51.27.35c9.8-1.54,11.58-21.83.34-24.73-6.28-1.62-40.98-1.48-48.14-.39-12.88,1.96-13.13,19.01-3.46,24.77ZM745.77,245.24c-1.78,18.51-32.96,8.95-45.42,11.29-2.6.04,0,0-7.01-.14-6.29-.13-17.99.95-17.98-6.1.74-22.26-2.41-34.01-.45-55.95.82-9.21,7.68-16.44,16.92-17.56,7.56-.92,36.48-.95,42.75,1.52,5.81,2.29,10.27,9.14,11.07,15.25,1.45,11.07,1.22,40.29.12,51.69ZM720.32,228.86c0,.3-1.2,1.38-.91,2.27h-19.06v-26.77c0-3.1,15.59-3,17.76-1.43.41.3,2.2,3.02,2.2,3.24v22.69Z"/>
    <path class="st1" d="M868.75,14.12c7.02,0,17.97,2.99,19.27,8.96,1.25,5.75-2.97,8.95-4.36,13.86h21.32c11.55,0,10.64,22.69,1.81,22.69h-56.26c-2.37,2.44.55,7.35-.45,10.89,5.97-.09,20.8-1.37,33.05-1.37,7.84,0,14.62.53,17.36,2.22,6.74,4.19,3.83,19.11-3.68,19.11h-46.73v9.98h59.44c7.98,0,11.81,20.65-.97,22.63l-146.99.11c-.25.02-.49.03-.73.03-8.8,0-11.2-13.18-7.34-19.08.82-1.25,5.25-3.68,6.3-3.68h58.53v-9.98h-46.73c-.43,0-2.98-1.38-3.62-1.82-6.34-4.32-4.35-19.05,5.44-19.05h44.92v-9.98h-56.71c-6.99,0-8.9-14.14-4.59-19.11.9-1.04,5.42-3.57,6.41-3.57h22.23c-6.02-9.22-9.02-16.11,3.38-20.67,3.56-1.31,6.59-1.9,9.22-1.9,11.17,0,14.97,10.67,19.71,22.62l32.45-.18c4.33-5.3,7.74-20.75,14.83-22.37.96-.22,2.16-.33,3.51-.33M698.16,25.35c10.39,0,22.04,1.26,31.99,1.26,1.96,0,3.85-.05,5.65-.17,10.38,2.45,9.66,23.35-.57,24.96l-50.57-.14c-9.31-2.08-10.33-22.98.93-25,3.79-.68,8.06-.92,12.57-.92M745.06,63.47c11.84,1.86,11.67,24.28.16,26.04h-70.68c-10.25-1.87-11.12-23.82,1.08-26.04h69.44M710.44,100.78c10.82,0,21.85.37,25.13,1.21,11.24,2.9,9.46,23.19-.34,24.73l-51.27-.35c-9.67-5.76-9.42-22.8,3.46-24.77,3.42-.52,13.12-.83,23.01-.83M819.52,127.93c5.82,0,9.26,2.65,10.38,8.59,2.4,12.84-7.47,12.21-17.02,13.85v14.52h26.32c-.38-7.59-3.29-27.6,1.78-33.15,1.99-2.18,6.24-3.33,10.65-3.33,5.93,0,12.13,2.07,13.48,6.49l1.31,29.99h42.2c4.38,0,7.24,9.21,6.83,13.17-.43,4.09-4.46,9.51-8.65,9.51h-38.57l2.73,19.05c.09.1.21.14.36.14,2.47,0,12.18-12.7,13.7-13.75,1.79-1.23,3.76-1.78,5.75-1.78,7.61,0,15.39,7.95,13.34,15.41-2.16,7.85-17.31,19.78-22.75,26.31-1.58,2.91,4.87,7.97,7.35,8.14.14,0,.28.01.41.01,8.24,0,6.7-17.2,16.44-17.2.79,0,1.66.11,2.61.36,19.36,5,3.68,41.27-13.23,45.82-2.6.7-5.09,1.02-7.48,1.02-12.32,0-21.83-8.66-28.89-19-.02,0-.04,0-.06,0-2.07,0-19.77,14.49-26.35,15.12-.22.02-.43.03-.65.03-8.23,0-18.07-14.29-11.77-21.55,3.45-3.98,27.42-13.99,28.38-17.93l-7.13-40.21h-28.13v13.61c3.65-.45,9.79-2.78,14.79-2.78,3.4,0,6.28,1.08,7.47,4.56,6.45,18.74-9.13,17.48-22.18,20.99-1.16,15.49,4.59,41.27-16.05,45.21-3.03.58-9.02,1.11-14.98,1.11-6.39,0-12.73-.61-15.33-2.4-4.83-3.34-6.33-15.98-3.17-20.38,1.71-2.37,4.56-2.83,7.7-2.83,1.96,0,4.03.18,6.02.18,2.96,0,5.71-.39,7.58-2.36v-14.07c-5.07,1.03-11.9,3.14-17.68,3.14s-10.65-2.18-11.4-9.9c-1.99-20.49,16.52-11.92,29.6-16.77l-.52-17.31h-22.23c-8.97,0-12.58-13.42-6.4-20.01.57-.61,3.22-2.68,3.67-2.68h25.86v-9.99c-4.79.06-10.75,1.25-16.01,1.25-1.54,0-3.01-.1-4.38-.36-7.09-1.35-8.48-16.53-2.06-19.26,9.67-1.36,19.46-2.08,29.11-3.56,7.73-1.18,19.8-4.87,26.71-5.04.17,0,.34,0,.5,0M710.06,137.86c10.45,0,21.11.34,24.83,1.11,9.75,2.03,10.82,18.18,5.14,22.93-1.55,1.29-5.34,1.94-7.42,2.12-3.63.31-7.37.42-11.17.42-10.02,0-20.45-.77-30.4-.77-2.15,0-4.28.04-6.37.12-9.49-2.14-11.3-23.24,2.61-25.14,3.7-.5,13.15-.79,22.78-.79M707.51,176.21c10.76,0,23.21.57,27.07,2.09,5.81,2.29,10.27,9.14,11.07,15.25,1.45,11.07,1.22,40.29.12,51.69-.94,9.79-10.11,11.73-20.38,11.73-6.73,0-13.93-.83-19.61-.83-2.04,0-3.88.11-5.43.4-.64.01-.97.02-1.2.02-.7,0-.53-.05-5.81-.16-.47,0-.96-.01-1.48-.01-.77,0-1.6,0-2.45,0-6.28,0-14.06-.34-14.05-6.09.74-22.26-2.41-34.01-.45-55.95.82-9.21,7.68-16.44,16.92-17.56,2.91-.35,8.96-.58,15.68-.58M700.35,231.13h19.06c-.29-.89.91-1.97.91-2.27v-22.69c0-.22-1.79-2.94-2.2-3.24-.93-.67-4.31-1.07-7.88-1.07-4.78,0-9.89.72-9.89,2.5v26.77M868.75,1.42c-2.32,0-4.45.22-6.34.65-10.73,2.45-15.57,13.23-19.1,21.1-.14.31-.29.65-.45.99l-16.37.09c-1.7-3.91-3.62-7.71-6.08-11.04-7.05-9.53-15.94-11.53-22.16-11.53-4.25,0-8.7.88-13.61,2.68-8.42,3.1-13.79,7.96-15.94,14.46-.61,1.84-.91,3.66-.98,5.42h-4.31c-2.87,0-5.61.87-9.43,3.01-.06.03-.12.07-.17.1-2.79-6.73-8.13-11.62-15.08-13.27l-1.85-.44-1.9.12c-1.44.09-3.02.14-4.83.14-4.55,0-9.59-.29-14.92-.6-5.63-.33-11.46-.66-17.07-.66s-10.63.37-14.81,1.12c-10.88,1.95-18.36,11.71-18.63,24.27-.12,5.42,1.09,10.43,3.31,14.59-8.59,3.88-14.06,12.94-14.08,24.06-.01,11.14,5.56,20.42,14,24.05-1.39,2.38-2.4,5.05-2.96,7.95-1.7,8.72,1.05,17.79,6.87,24.06-4.35,4.33-7.04,10.4-7.34,17.41-.38,8.79,3,16.74,8.63,21.59-6.09,5.28-10.12,12.85-10.89,21.48-1.18,13.18-.63,23.1-.1,32.69.4,7.23.82,14.71.51,23.97v.2s0,.2,0,.2c-.01,4.73,1.78,9.14,5.04,12.41,6.4,6.42,16.36,6.42,21.71,6.42.45,0,.9,0,1.33,0h1.12c.43,0,.84,0,1.22,0,3.37.07,4.39.11,4.88.13.51.02.76.03,1.19.03.27,0,.66,0,1.42-.02l1.07-.02,1.06-.2c.29-.05,1.16-.18,3.08-.18,2.32,0,5.17.18,8.19.36,3.69.23,7.51.47,11.42.47,8.01,0,14.05-1.07,19.02-3.37,2.07-.96,3.94-2.13,5.58-3.48,1.04,4.63,3.53,11.44,9.4,15.5,3.14,2.17,8.54,4.66,22.55,4.66,6.21,0,13.19-.54,17.36-1.33,6.58-1.26,12.03-4.08,16.22-8.33.27.24.54.48.82.71,4.67,3.89,9.91,5.95,15.17,5.95.62,0,1.25-.03,1.86-.09,6.33-.6,13.12-4.72,22.39-11.01,2.53,2.67,5.16,4.99,7.87,6.94,7.39,5.32,15.41,8.02,23.84,8.02,3.55,0,7.18-.49,10.78-1.46,8.42-2.27,16.49-8.77,22.71-18.32,5.67-8.69,8.89-18.58,8.85-27.14-.06-10.97-5.56-19.7-14.62-23.61.47-1.08.87-2.16,1.17-3.27,1.11-4.04,1.03-8.28-.17-12.34,2.18-1.27,4.22-2.99,6.02-5.11,3.25-3.83,5.39-8.64,5.86-13.19.62-5.94-1.6-15.44-6.92-21.35-3.4-3.77-7.85-5.85-12.54-5.85h-30.04l-.72-16.37,30.7-.02h.97s.96-.15.96-.15c12.2-1.88,20-12.48,18.98-25.76-.79-10.32-6.38-18.36-14.05-21.1.18-.5.34-1.01.49-1.53,1.7-5.94,1.33-11.99-.76-17.05,3.13-1.7,5.81-4.36,7.72-7.78,2.17-3.88,3.37-8.77,3.37-13.76,0-3.87-.7-9.58-4.04-14.84-3.87-6.09-10.14-9.58-17.22-9.58h-4.04c-.05-1.22-.21-2.51-.51-3.86-.87-4.01-4.01-11.4-15.23-15.84-5.03-1.99-11.03-3.13-16.45-3.13h0ZM748.95,132.97c.16-.17.31-.33.46-.5.05.03.09.06.14.09-.13.22-.25.43-.37.66-.08-.08-.15-.16-.23-.25h0Z"/>
  </g>
  <g>
    <path class="st2" d="M884.3,127.88c6.36-1.45,11.13,2.73,15.7,6.6s11.88,10.55,8.86,17.01-11.87,12.97-18.81,8.38c-3-5.87-16.66-13.87-16.45-19.9.15-4.31,6.58-11.14,10.7-12.08Z"/>
    <path class="st1" d="M886.86,127.59c5.12,0,9.2,3.56,13.14,6.9,4.6,3.89,11.88,10.55,8.86,17.01-2.3,4.91-8.05,9.91-13.73,9.91-1.73,0-3.46-.46-5.08-1.54-3-5.87-16.66-13.87-16.45-19.9.15-4.31,6.58-11.14,10.7-12.08.88-.2,1.74-.3,2.57-.3M886.86,114.88h0c-1.8,0-3.61.21-5.4.62-9.01,2.06-20.19,13.23-20.57,24.02-.33,9.41,6.81,15.91,13.1,21.63,1.64,1.49,4.1,3.73,4.85,4.73l1.4,2.74,2.79,1.84c3.61,2.38,7.78,3.64,12.09,3.64,11.8,0,21.35-8.93,25.24-17.23,1.89-4.04,4.07-12.26-2.58-22.01-2.81-4.12-6.42-7.41-9.57-10.08l-.27-.23c-2.2-1.86-4.69-3.98-7.71-5.77-4.34-2.59-8.84-3.9-13.36-3.9h0Z"/>
  </g>
  <g>
    <path class="st1" d="M1090.11,2.96s0,0,0,0c-15.25,0-118.98,1.4-118.98,1.4l-.8-.05-.8.05c-9.71.6-17.9,4.42-23.69,11.02-12.16,13.88-10.6,36.29-9.57,51.12.8,11.57,4.34,20.12,10.78,26.01-14.73,9.24-15.81,27-16.23,33.97-1.27,20.99-1.27,50.38,0,71.48.43,7.11,1.25,20.8,11.39,29.98-3,.65-6.16,1.48-9.13,2.62-10.68,4.1-14.24,10.81-15.35,15.72-2.13,9.43.05,20.45,5.57,28.07,4.36,6.02,10.63,9.71,17.63,10.37,1.05.1,2.16.15,3.31.15,15.66,0,42.81-10.06,57.59-16.05,2.63-1.06,9.01-3.78,14.96-6.55,12.44-5.78,15.48-8.2,17.61-11.44,1.96-2.98,3.87-7.49,3.25-13.28h21.95c-.21,2-.14,4.08.32,6.23.81,3.85,3.21,9.32,10,13.52,14.65,9.05,58.82,25,75.02,27.1,2.55.33,4.81.49,6.91.49,13.46,0,22.67-6.95,26.61-20.1,1.88-6.25,3.81-15.51-.97-23.7-5-8.56-13.96-10.58-21.15-12.2-.66-.15-1.32-.3-1.99-.45,2.17-1.91,4.05-4.13,5.63-6.63,3.24-5.13,5.14-11.36,5.8-19.03,1.81-21.17,1.81-59.82,0-81.08-1.12-13.1-6.59-23.01-15.58-28.87.87-.81,1.71-1.7,2.51-2.68,3.56-4.36,7-14.57,7.5-18.44,1.06-8.06,1.34-34.69-2.16-44.88-7.01-20.39-25.43-21.96-31.48-22.47-10.89-.93-22.83-1.38-36.49-1.38h0Z"/>
    <path class="st2" d="M978.44,89.66s142.06.05,141.63,0c7.63-1.21,17.45-1.01,22.82-7.58,1.53-1.87,4.42-9.56,4.74-12.05,1.03-7.87.84-32.06-1.58-39.1-3.43-9.99-10.43-13.08-20.54-13.94-49.55-4.21-117.99-.71-155.19.04-24.63,1.53-22.66,30.16-21.37,48.58,1.37,19.71,11.65,22.98,29.49,24.04Z"/>
    <path class="st1" d="M989.56,41.72l117.71-.14c5.5.43,5.65,7.91,5.61,12.34-.05,5.01-.35,10.03-6.44,10.3l-117.02-.08c-7.66-.83-7.31-20.85.14-22.43Z"/>
    <path class="st2" d="M1166.31,261.12c-3.11,10.36-9.71,11.96-19.73,10.66-14.91-1.93-57.07-17.34-69.97-25.31-9.61-5.94-1.08-15.09,3.04-21.65h-61.7c2.27,5.62,10.16,12.44,5.84,19.01-1.69,2.58-22.33,11.41-26.73,13.19-12.75,5.17-42.09,16.24-54.93,15.03-10.02-.95-13.96-14.38-12.01-22.99,1.84-8.15,19.16-9.05,26.14-11.06,9.27-2.68,21.6-6.29,29.97-10.86,1.01-.55,2.47-1.01,2.68-2.31h-23.14c-1.66,0-9.72-2.87-11.56-3.87-8.96-4.88-10.15-14.42-10.71-23.77-1.23-20.47-1.24-49.48,0-69.95.97-16.04,5.57-26.36,23.14-27.68,0,0,164.91-.02,164.32,0,14.09,1.21,21.01,9.43,22.19,23.19,1.74,20.46,1.75,58.46,0,78.92-.88,10.23-4.5,18.17-14.91,21.39-1.4.43-7.21,1.76-8.22,1.76-6.58,0-13.42.32-19.96,0-.27-.01-1.22-.04-2.06-.13l-.21,1.02c13.01,5.48,26.28,10.27,39.9,14.11,12.65,3.57,24.3,2.38,18.63,21.29Z"/>
    <path class="st1" d="M986.65,123.2l123.45-.04c7.72.71,8.28,4.81,7.67,11.84h-138.84c-.49-6.96.12-10.93,7.71-11.8Z"/>
    <rect class="st1" x="978.93" y="155.87" width="138.84" height="11.8"/>
    <path class="st1" d="M990.24,201.28c-9.66-.68-11.94-2.47-11.3-12.74h138.84c.63,7.97-.07,11.75-8.62,12.71l-118.92.04Z"/>
  </g>
</svg>