<?xml version="1.0" encoding="UTF-8"?>
<svg id="_レイヤー_1" data-name="レイヤー_1" xmlns="http://www.w3.org/2000/svg" version="1.1" viewBox="0 0 1200 630">
  <!-- Generator: Adobe Illustrator 29.8.3, SVG Export Plug-In . SVG Version: 2.1.1 Build 3)  -->
  <defs>
    <style>
      .st0 {
        isolation: isolate;
      }

      .st1 {
        fill: #ff004d;
      }

      .st2 {
        fill: #fff;
      }

      .st3 {
        fill: #020817;
      }

      .st4 {
        fill: #005cc9;
      }
    </style>
  </defs>
  <rect class="st3" y="0" width="1200" height="630"/>
  <g class="st0">
    <path class="st2" d="M131.94,439.14h39.93v41.41h-5.57v-1.98h-28.85v1.98h-5.52v-41.41ZM137.46,444.57v28.62h28.85v-28.62h-28.85ZM161.01,460.21c1.1,2.71,1.52,4.69,1.66,5.47h2.12v4.74h-25.81v-4.74h9.62v-5.47h-8.14v-4.28h8.14v-4.23h-8.88v-4.55h24.57v4.55h-10.26v4.23h9.43v4.28h-2.44ZM154.02,460.21v5.47h3.91c-.46-1.89-1.06-3.73-1.89-5.47h-2.02Z"/>
    <path class="st2" d="M185.9,452.25c-3.68,2.21-5.98,3.22-7.41,3.87l-2.85-5.66c11.18-4.37,16.65-9.48,19.14-13.16h6.53c2.48,3.13,6.99,8.28,19,13.16l-2.94,5.61c-1.47-.64-3.73-1.61-7.27-3.91v2.62h-24.2v-2.53ZM212.58,481.1c-.51-.92-.83-1.61-1.84-3.27-5.93.69-13.43,1.61-32.02,1.98l-.74-5.8c.6,0,5.52.05,6.58.05,1.33-2.53,2.9-6.3,3.96-9.52h-11.04v-5.38h40.94v5.38h-23.32c-1.75,4.09-2.9,6.72-4.32,9.48,1.47,0,9.16-.18,16.7-.78-1.01-1.38-2.21-2.9-4.65-5.7l4.88-2.62c5.24,5.2,9.16,11.64,10.12,13.2l-5.24,2.99ZM206.46,449.67c-4.97-3.68-7.27-6.35-8.46-7.77-2.21,3.08-5.47,5.75-8.28,7.77h16.75Z"/>
    <path class="st2" d="M222.14,445.12h14.54v4.69h-14.54v-4.69ZM223.38,438.45h12.24v4.55h-12.24v-4.55ZM223.38,451.79h12.24v4.55h-12.24v-4.55ZM223.38,458.65h12.24v4.65h-12.24v-4.65ZM223.38,465.78h12.24v13.07h-7.54v1.79h-4.69v-14.86ZM227.85,469.96v4.6h3.45v-4.6h-3.45ZM237.19,440.75h5.06c-.6-1.56-.69-1.79-1.15-2.62l5.38-1.01c.78,1.38,1.43,3.04,1.66,3.63h5.38c.28-.64.69-1.61,1.24-3.63l6.12.74c-.37.92-.55,1.33-1.33,2.9h5.2v3.5h-11.23v1.98h9.62v3.13h-9.62v2.07h12.01v3.68h-28.85v-3.68h11.5v-2.07h-9.43v-3.13h9.43v-1.98h-11v-3.5ZM247.86,475.44c1.47-.6,3.22-1.29,5.61-2.71-.23-.97-.74-2.85-1.1-6.67h-5.43v2.35c1.38-.18,2.12-.28,3.63-.51v3.77c-.92.18-2.67.55-3.63.74v4.09c0,2.81-.46,4.14-3.77,4.14h-5.06l-.74-4.74h3.27c1.1,0,1.43-.18,1.43-1.2v-1.61c-2.16.23-3.4.32-4.88.41l-.46-4.42c1.43-.05,2.99-.09,5.34-.28v-2.76h-5.29v-3.82h5.29v-2.07c-1.06.05-1.75.09-4.14.18l-.74-3.36c1.24-.05,7.87-.28,12.01-1.1l1.24,3.5c-1.01.14-1.89.23-3.5.41v2.44h5.11c-.23-3.68-.23-5.29-.23-6.39h5.01c0,1.79,0,3.08.23,6.39h8.46v3.82h-4.97l3.54,2.12c-1.01,1.47-2.39,3.54-4.92,5.89.23.46.6,1.24,1.24,1.24,1.01,0,2.02-1.66,3.31-3.68l2.35,4.23c-1.29,2.12-3.5,4.92-6.3,4.92-1.52,0-3.31-.92-4.69-3.54-2.21,1.43-3.63,2.07-4.92,2.62l-2.3-4.42ZM257.38,466.05c.18,1.75.32,2.48.46,3.22,1.33-1.43,2.02-2.44,2.53-3.22h-2.99ZM261.89,455.56c.97,1.01,2.44,3.17,2.99,4.09l-3.96,1.98c-.83-1.7-1.29-2.71-2.67-4.37l3.63-1.7Z"/>
    <path class="st2" d="M267.59,476.08c6.03-.51,10.54-2.07,13.02-3.45h-8.69v-21.12h35.98v21.12h-9.06c.97.6,5.38,2.67,13.34,3.22l-2.39,5.01c-5.06-.6-10.77-2.39-15.55-5.06l3.22-3.17h-15.69l3.13,3.27c-3.96,2.25-8.1,3.82-14.77,5.11l-2.53-4.92ZM273.39,438.5h33.03v10.86h-33.03v-10.86ZM277.48,457.59h24.84v-2.3h-24.84v2.3ZM277.48,463.15h24.84v-2.39h-24.84v2.39ZM277.48,468.81h24.84v-2.39h-24.84v2.39ZM278.95,445.53h21.81v-2.99h-21.81v2.99Z"/>
    <path class="st2" d="M333.88,472.72c8.23-.37,15.92-2.71,15.92-13.99,0-5.2-1.89-11.69-10.86-12.38-.46,5.52-1.33,15.96-5.15,22.41-.78,1.33-3.73,6.16-9.02,6.16-6.21,0-9.34-6.95-9.34-13.62,0-12.05,8.74-20.66,21.71-20.66,11.92,0,19.28,6.85,19.28,18.4,0,13.62-8.56,18.72-20.61,19.55l-1.93-5.89ZM321.46,461.82c0,5.8,2.58,6.85,3.68,6.85,3.4,0,6.62-7.68,7.68-22.04-8.74,1.98-11.36,8.97-11.36,15.18Z"/>
    <path class="st2" d="M372.43,464.76c-1.75,4.51-5.75,11.96-9.2,15.69l-3.45-5.61c4.42-5.15,7.31-11.5,8.28-13.62l4.37,3.54ZM362.76,449.58c2.44.87,5.8,2.9,7.91,4.78l-3.31,4.74c-3.5-2.71-5.43-3.87-7.5-4.83l2.9-4.69ZM364.7,437.25c2.99,1.15,5.61,2.67,8.05,4.65l-3.4,4.78c-2.39-1.98-4.92-3.54-7.87-4.88l3.22-4.55ZM385.4,444.57c-5.66.23-9.02.28-10.86.28l-1.1-5.29c15.18-.09,20.56-.64,26.96-2.35l2.16,5.11c-1.66.41-4.78,1.24-11.41,1.89v5.06h12.47v5.25h-12.47v5.75h10.35v20.47h-5.66v-2.3h-15.09v2.3h-5.66v-20.47h10.31v-5.75h-12.47v-5.25h12.47v-4.69ZM380.75,465.22v8.14h15.09v-8.14h-15.09Z"/>
    <path class="st2" d="M429.05,478.29c-8.1.83-11.96.97-22.45,1.43l-.41-4.74c2.48,0,4.6,0,10.08-.23v-2.53h-9.06v-4.09h9.06v-1.89h-8.74v-15.96h8.74v-1.7h-9.98v-4.28h9.98v-1.7c-4.65.18-7.18.18-8.97.14l-.6-4.09c8.97,0,14.68-.14,21.94-1.52l1.56,4.14c-1.38.28-3.45.74-8.92,1.1v1.93h9.94v4.28h-9.94v1.7h8.92v15.96h-8.92v1.89h9.38v4.09h-9.38v2.25c1.2-.09,7.08-.46,8.42-.6,1.56-2.48,5.24-8.19,5.24-22.31h-3.31v-5.57h3.31v-8.69h5.52v8.69h8.23c0,2.71,0,26.09-1.47,30.64-1.06,3.4-2.62,3.91-5.2,3.91h-4.51l-.92-5.71h3.54c1.61,0,1.89-.6,2.07-1.33.74-3.04,1.06-17.94,1.1-21.94h-2.85c0,15.27-3.96,23.78-8.46,29.03l-2.94-2.3ZM412.26,453.86v2.71h4v-2.71h-4ZM412.26,459.7v2.81h4v-2.81h-4ZM421.28,453.86v2.71h4.19v-2.71h-4.19ZM421.28,459.7v2.81h4.19v-2.81h-4.19Z"/>
    <path class="st2" d="M472.15,439.09c-.18,1.2-.32,1.93-.74,3.68h18.13v5.66h-19.78c-.55,1.7-1.06,2.67-1.52,3.59,2.67-1.24,4.65-1.33,5.29-1.33,5.06,0,6.81,3.86,7.27,4.88,5.01-2.07,8.7-3.04,10.86-3.63l1.38,6.07c-1.89.37-5.15.97-11,3.08.14,1.52.18,3.13.18,4.65,0,1.33,0,2.07-.05,3.54h-6.03c.14-1.84.18-3.91.09-5.8-2.44,1.24-6.49,3.22-6.49,6.17,0,3.59,4.42,3.59,9.02,3.59,3.77,0,7.87-.18,11.59-.55v5.93c-1.61.05-5.8.18-9.2.18-6.72,0-10.21-.41-12.88-1.47-2.48-.97-5.06-3.54-5.06-7.18,0-6.3,8.46-10.4,12.1-12.24-.23-.46-1.06-2.02-3.36-2.02-.55,0-3.77,0-8.33,4.6-3.86,5.93-5.15,7.13-5.93,7.91l-4.37-4.51c2.35-2.21,6.9-6.72,10.12-15.46h-8.69v-5.66h10.26c.37-1.7.51-2.85.64-4.14l6.49.46Z"/>
    <path class="st2" d="M170.9,514.07v5.66h-14.81l-.09,1.2c-1.15,15.23-10.44,18.31-19.46,20.1l-2.58-5.57c9.2-1.29,15.23-3.4,15.69-14.58l.05-1.15h-17.48v-5.66h38.69ZM163.36,502.34c.46,1.75.64,2.53.64,4.19v1.33h-28.8v-5.52h28.16ZM165.29,506.48c-.23-2.12-.46-3.77-1.33-6.95l3.54-.55c.87,3.04,1.1,3.82,1.52,6.85l-3.73.64ZM170.63,505.97c-.74-4.42-1.15-5.8-1.61-7.08l3.45-.6c.83,2.3,1.15,3.73,1.75,6.99l-3.59.69Z"/>
    <path class="st2" d="M217.41,517.75v6.53h-40.76v-6.53h40.76Z"/>
    <path class="st2" d="M237.69,516.6c1.79.74,5.93,2.48,10.17,5.98,3.45-4.6,4.55-9.11,4.97-10.86h-14.81c-5.2,6.95-10.4,9.94-12.28,11.04l-4-4.51c8.1-4.28,12.33-9.8,15.5-17.99l6.58,1.06c-.64,1.66-1.2,2.94-2.16,4.74h18.82c-1.7,10.72-6.99,29.21-32.48,35.19l-3.4-5.47c2.81-.46,10.67-1.75,18.86-8.6-4.37-3.68-7.91-5.43-9.94-6.39l4.19-4.19Z"/>
    <path class="st2" d="M306.33,508.82c-1.06,0-4.05-.09-5.75-.05-3.63.14-7.36,1.24-11.55,4.42-2.62,2.02-7.64,6.85-7.64,12.61,0,3.54,1.52,8.92,20.66,8.28l-.87,6.58c-10.08-.05-14.77-1.01-19-3.08-4.37-2.16-7.13-6.53-7.13-10.95,0-2.99.83-10.63,11.78-17.62-3.22.28-17.44,1.47-20.33,1.75l-.23-6.44c3.08,0,6.76-.23,10.17-.41,3.96-.23,25.03-1.01,29.72-1.2l.18,6.12ZM297.03,522.76c-.46-.83-2.02-4.05-4.14-6.9l3.59-1.89c1.61,1.98,3.08,4.37,4.23,6.72l-3.68,2.07ZM303.15,519.73c-1.89-3.31-2.76-4.69-4.23-6.53l3.63-1.89c1.29,1.47,3.27,4.28,4.19,6.21l-3.59,2.21Z"/>
    <path class="st2" d="M333.93,528.88h-4.92c-.92,6.62-6.72,12.19-16.01,14.03l-2.58-5.93c7.27-1.47,11.36-2.99,12.93-8.1h-7.31v-28.06h32.85v28.06h-9.25v6.49c0,.92.28,1.33,1.15,1.33h5.98c1.52,0,1.84,0,1.79-6.21l5.66,1.61c-.09,6.85-.78,9.94-4.6,9.94h-11.5c-3.22,0-4.19-2.02-4.19-3.86v-9.29ZM321.69,505.65v3.22h21.58v-3.22h-21.58ZM321.69,513.19v3.27h21.58v-3.27h-21.58ZM321.69,520.74v3.5h21.58v-3.5h-21.58Z"/>
    <path class="st2" d="M387.42,510.94v4.88c-1.43,1.01-6.35,5.06-9.48,7.68.74-.23,1.15-.37,1.98-.37,3.31,0,4.46,2.44,4.46,6.17v1.7c0,3.22.18,3.96,5.66,3.96,2.21,0,4.83-.28,6.35-.41l.09,5.98c-1.29.14-3.31.28-5.52.28-7.27,0-9.57-.83-11.13-2.81-.74-.92-1.24-2.67-1.24-4.97v-1.84c0-1.43,0-3.27-2.3-3.27-2.02,0-3.45.92-4.32,1.52-2.44,2.12-10.26,10.35-11.04,11.23l-4.09-5.01c.92-.78,8.33-7.54,11.23-10.17,5.84-5.34,8.05-7.22,10.26-9.16l-18.31.6v-5.84l27.42-.14ZM387.61,508.68c-5.57-1.66-16.29-2.99-22.27-2.85l.6-5.24c7.04-.09,15.46.78,22.68,2.44l-1.01,5.66Z"/>
    <path class="st2" d="M430.48,501.69v4.97c-7.31,6.62-8.1,7.27-9.43,8.37,1.29-.41,2.44-.83,5.11-.83,8.97,0,12.7,6.62,12.7,12.56,0,7.5-5.34,14.12-17.48,14.12-4.83,0-7.22-1.2-8.56-2.02-2.21-1.33-3.73-3.73-3.73-6.3,0-4.6,4.46-7.18,8.6-7.18,5.43,0,8.51,4.05,8.51,8.33,0,.37-.05.64-.09,1.29,4-1.2,6.35-3.63,6.35-7.73,0-7.77-7.04-7.77-8.56-7.77-5.75,0-9.48,2.48-11.78,4.05-1.56,1.47-6.21,6.03-7.91,7.82l-3.45-5.34c6.95-6.12,13.85-12.47,20.7-18.77l-17.34.28v-5.84h26.36ZM421.33,534.49c0-1.93-1.06-4.28-3.91-4.28-1.98,0-3.22,1.1-3.22,2.58,0,1.29,1.01,3.41,6.95,2.94.14-.51.18-.83.18-1.24Z"/>
    <path class="st2" d="M448.74,520.51c-1.29,1.75-2.12,2.58-3.22,3.63l-2.53-7.04c4.78-5.34,7.96-10.86,9.48-17.8l5.66.6c-.41,1.98-1.1,5.25-3.54,10.63v32.16h-5.84v-22.17ZM469.21,499.35v15.46c3.96-1.47,8.83-3.87,13.94-7.82l3.68,4.78c-6.4,4.69-13.25,7.45-17.62,8.88v13.85c0,1.06,0,1.7,1.79,1.7h8.46c1.1,0,1.33-.32,1.47-.69.41-.97.55-6.12.6-7.45l5.75,1.56c-.05,11.59-2.3,12.38-5.89,12.38h-13.25c-2.39,0-4.83-.51-4.83-4.37v-38.28h5.89Z"/>
  </g>
  <g>
    <path class="st1" d="M281.72,123.4h21.5c.29,0,4.5,2.47,5.03,2.97,5.09,4.8,5,19.71-.48,24.58-1.32,1.17-6.17,3.45-7.55,3.45h-18.5v51h21.5c3.52,0,7.65,6.42,8.26,9.74,4.05,21.89-11.65,22.76-28.79,20.68-1.63,8.13-.67,16.03-2.43,24.61-10.52,51.13-100.52,44.08-91.3-20.3,2.36-16.46,20.06-34.74,37.26-34.74h21l1.5-1.5v-49.5h-46.5c-.56,0-6.62-2.89-7.42-3.58-7.2-6.18-5.86-25.97,6.4-27.45,13.54-1.63,30.53,1.67,44.08.08,1.46-.17,2.57-.12,3.45-1.55v-21c0-9.79,20.18-11.49,26.92-7.92,1.57.83,6.08,6.63,6.08,7.92v22.5h0ZM248.72,236.4h-18.5c-.29,0-4.32,2.45-5,3-7.87,6.41-5.38,20.68,4.68,23.31,18.18,4.76,19.86-12.79,18.82-26.31ZM497.74,164.88c1.16,13.87,9,25.04,23.5,26.5,24.53,2.48,53.35-2.52,77.86.14s27.38,31.44,5.7,39.45c-21.29,2.16-44.54-1.41-65.61.39-7.76.66-14.41,2.79-15.49,11.51s.44,18.46,10.5,19.55c37.29-3.03,104.01,13.92,116.23-35.82,7.93-32.27-9.2-59.99-42.32-65.08-23.69-3.64-50.65.53-74.74-1.26l-1.2-.8c-2.75-8.33,7.12-33.12-2.69-37.31-3.8-1.62-22.53-1.66-25.43,1.56-3.83,4.26-6.85,34.6-6.3,41.17h-.01ZM347.22,178.4c.43,0,1.68,1.57,1.45,2.4-4.04,28.31-8.23,72.22-27.44,94.61-6.4,7.47-10.25,5.67-16.02,9.98-7.5,5.6-6.9,25.17,4.45,27.56,37.64,7.92,57.17-50.95,63.57-78.54,4.27-18.41,6.15-37.17,8.63-55.87l71.31-.19c11.76-2.16,11.66-26.54-.16-29.74l-68.35-.65c-3.73-2.6,5.81-26.24-8.49-28.51-3.19-.5-11.68-.47-14.97-.08-15.17,1.79-8.23,26.37-11.41,28.59-8.47,2.19-25.59-3.24-30.93,5.07-4.33,6.74-3.15,23.46,6.37,25.37,4.92.99,16.21,0,22,0h0ZM794.29,74.33c-9.91-4.88-41.03-2.56-50.04,6.09-20.95,20.71-44.89,38.53-66.05,58.95-17.95,17.33-20.87,35.54-3.12,54.68,19.11,20.61,45.68,38.52,65.18,59.32,11.75,10.78,32.87,10.49,48.01,9.07,16.46-1.54,16.18-26.58,3.12-30.2-10.44-2.9-18.82,2.51-28.58-4.42-19.79-14.06-37.79-36.68-57.61-51.39-12.21-9.03.21-16.75,7.51-23.54,17.42-16.21,35.83-31.56,53.68-47.32,8.35-5.4,24.22,1.7,30.99-5.51,5.19-5.52,4.54-21.96-3.09-25.72h0ZM129.7,110.87c2.22,42.86-2.87,88.54-.02,131.06,1.7,25.31,12.96,47.97,42.48,43.4,10.65-1.65,12.62-15.51,9.06-23.94-3.54-8.39-11.33-5.25-14.97-10.03-1.94-2.54-3.09-9.3-3.4-12.6-3.75-40.05,2.61-85.2-.21-125.79-1.66-12.8-12.05-14.21-23.18-12.35-5.64.94-9.03,4.56-9.76,10.24h0ZM534.2,103.42c21.4,2.59,49.65-3.24,70.58.42,16.81,2.94,2.65,18.52,22.57,20.42,19.12,1.83,23.34-6.25,18.87-23.86-5.8-22.84-27.27-26.95-47.95-28.05-12.48-.66-56.05-1.79-65.76,1.32-10.41,3.34-11.86,19.67-5.44,26.38,1.52,1.59,4.86,3.09,7.14,3.36h-.01ZM400.28,242.45c-10.36,1.64-12.23,22.09-11.43,30.32,1.35,13.96,8.57,24.25,21.62,29.38s47.49,5.99,61.78,4.26c15.55-1.88,16.04-29.12-1.02-31.03-10.2-1.14-40.65,2.83-47.03-2.97-7.14-6.48,4.59-20.97-2.79-27.71-3.26-2.98-16.66-2.97-21.13-2.26h0ZM403.83,220.79c14.32,6.33,41.3-3.8,56.7,2.3,12.17,4.82.53,17.43,18.82,19.18,20.42,1.95,24.45-7.89,18.89-25.88-11.09-35.88-63.44-22.54-91.78-24.76-12.02,2.45-13.76,24.23-2.62,29.16h-.01Z"/>
    <path class="st2" d="M565.43,71.6c13.32,0,26.76.43,32.83.75,20.68,1.1,42.14,5.21,47.95,28.05,4.06,15.98.96,24.11-13.95,24.11-1.52,0-3.16-.08-4.92-.25-19.92-1.9-5.75-17.48-22.57-20.42-5.31-.93-11.09-1.25-17.11-1.25-13.12,0-27.38,1.51-40.38,1.51-4.55,0-8.95-.19-13.09-.69-2.27-.28-5.61-1.77-7.14-3.37-6.41-6.71-4.97-23.04,5.44-26.38,4.98-1.6,18.89-2.08,32.93-2.08M778.18,71.81c6.71,0,12.68.83,16.11,2.52,7.63,3.76,8.28,20.2,3.09,25.72-2.76,2.93-7.02,3.5-11.68,3.5-2.89,0-5.93-.22-8.85-.22-3.92,0-7.63.39-10.47,2.23-17.84,15.76-36.25,31.11-53.68,47.32-7.3,6.79-19.72,14.51-7.51,23.54,19.82,14.71,37.81,37.33,57.61,51.39,4.4,3.13,8.52,3.74,12.68,3.74,2.7,0,5.42-.26,8.24-.26,2.46,0,4.99.2,7.66.94,13.06,3.62,13.34,28.66-3.12,30.2-4.26.4-8.99.71-13.85.71-12.43,0-25.72-2.03-34.16-9.78-19.5-20.8-46.07-38.71-65.18-59.32-17.74-19.14-14.83-37.35,3.12-54.68,21.16-20.42,45.1-38.24,66.05-58.95,5.89-5.66,21.24-8.61,33.93-8.61M266.41,91.26c3.7,0,7.12.6,9.23,1.71,1.57.83,6.08,6.63,6.08,7.92v22.5h21.5c.29,0,4.5,2.47,5.03,2.97,5.09,4.8,5,19.71-.48,24.58-1.32,1.17-6.17,3.45-7.55,3.45h-18.5v51h21.5c3.52,0,7.65,6.42,8.26,9.74,3.19,17.22-5.86,21.44-18.21,21.44-3.35,0-6.93-.31-10.59-.75-1.63,8.13-.67,16.03-2.43,24.61-4.64,22.54-24.72,33.77-44.94,33.77-25.65,0-51.51-18.07-46.35-54.07,2.36-16.46,20.06-34.74,37.26-34.74h21l1.5-1.5v-49.5h-46.5c-.56,0-6.62-2.89-7.42-3.58-7.2-6.18-5.86-25.97,6.4-27.45,2.83-.34,5.81-.47,8.88-.47,8.61,0,17.91.99,26.52.99,3,0,5.91-.12,8.68-.45,1.46-.17,2.57-.12,3.45-1.55v-21c0-6.73,9.54-9.64,17.69-9.64M235.52,263.5c12.92,0,14.13-15.13,13.21-27.11h-18.5c-.29,0-4.32,2.45-5,3-7.87,6.41-5.38,20.68,4.68,23.31,2.08.54,3.94.8,5.61.8M146.71,99.97c8.08,0,14.64,3.07,15.93,13.01,2.82,40.58-3.54,85.74.21,125.79.31,3.3,1.46,10.07,3.4,12.6,3.64,4.77,11.43,1.64,14.97,10.03,3.56,8.43,1.58,22.29-9.06,23.94-2.58.4-5.02.59-7.33.59-24.08,0-33.59-20.89-35.14-43.99-2.85-42.53,2.24-88.2.02-131.06.73-5.67,4.12-9.29,9.76-10.24,2.48-.41,4.92-.67,7.24-.67M368.52,119.08c3,0,6.02.12,7.65.37,14.3,2.26,4.77,25.91,8.49,28.51l68.35.65c11.82,3.2,11.92,27.58.16,29.74l-71.31.19c-2.48,18.7-4.36,37.46-8.63,55.87-6,25.88-23.55,79.27-56.76,79.27-2.2,0-4.47-.23-6.8-.73-11.35-2.39-11.95-21.96-4.45-27.56,5.77-4.31,9.61-2.52,16.02-9.98,19.21-22.39,23.4-66.3,27.44-94.61.23-.83-1.03-2.4-1.45-2.4-3.86,0-10.17.44-15.4.44-2.62,0-4.96-.11-6.6-.44-9.52-1.91-10.7-18.62-6.37-25.37,2.6-4.04,7.98-4.83,13.79-4.83,3.76,0,7.7.33,11.2.33,2.22,0,4.25-.13,5.94-.57,3.18-2.22-3.75-26.8,11.41-28.59,1.61-.19,4.45-.29,7.32-.29M519.09,121.07c4.57,0,8.79.4,10.38,1.08,9.81,4.19-.06,28.98,2.69,37.31l1.2.8c4.65.34,9.4.47,14.22.47,11.97,0,24.33-.76,36.4-.76,8.25,0,16.36.35,24.12,1.55,33.12,5.1,50.25,32.82,42.32,65.08-7.75,31.57-37.45,36.28-67.65,36.28-12.84,0-25.77-.85-37.15-.85-4.03,0-7.86.11-11.42.4-10.05-1.09-11.53-11.13-10.5-19.55,1.07-8.72,7.72-10.85,15.49-11.51,4.54-.39,9.19-.53,13.89-.53,11.69,0,23.75.85,35.55.85,5.47,0,10.88-.18,16.17-.72,21.68-8,18.27-36.84-5.7-39.45-5.46-.59-11.12-.8-16.91-.8-14.74,0-30.26,1.38-44.97,1.38-5.46,0-10.82-.19-15.98-.71-14.5-1.47-22.33-12.64-23.5-26.5-.55-6.58,2.47-36.91,6.3-41.17,1.68-1.87,8.71-2.64,15.05-2.64M447.06,190.96c22.53,0,44.44,3.65,51.17,25.42,5.09,16.48,2.14,26.12-14.1,26.12-1.48,0-3.08-.08-4.79-.24-18.29-1.74-6.65-14.35-18.82-19.18-3.88-1.54-8.49-2.04-13.45-2.04-9.64,0-20.59,1.92-30.01,1.92-4.98,0-9.54-.54-13.24-2.18-11.14-4.93-9.4-26.72,2.62-29.16,2.47.19,5.12.27,7.91.27,9.81,0,21.32-.93,32.69-.93M406.91,242.06c5.56,0,12.31.65,14.5,2.65,7.37,6.74-4.35,21.23,2.79,27.71,2.89,2.63,10.73,3.25,19.4,3.25,7.77,0,16.19-.5,22.29-.5,2.1,0,3.92.06,5.35.22,17.05,1.9,16.57,29.15,1.02,31.03-4.38.53-10.64.82-17.6.82-15.75,0-35.06-1.49-44.18-5.08-13.04-5.13-20.26-15.43-21.61-29.38-.8-8.23,1.07-28.68,11.43-30.32,1.47-.23,3.91-.39,6.63-.39M565.43,57.6c-25.38,0-33.21,1.47-37.2,2.75-8.9,2.85-15.45,10.17-17.96,20.06-2.42,9.5-.63,19.63,4.53,26.75-13.47.61-18.39,4.1-21.16,7.19-2.67,2.96-5.73,7.76-8.27,27.27-1.1,8.42-2.01,19.25-1.58,24.44.6,7.09,2.49,13.5,5.46,18.99-1.75-.93-3.58-1.77-5.51-2.54-3.66-1.45-7.48-2.53-11.31-3.33,2.04-3.96,3.26-8.6,3.47-13.67.25-5.98-.98-12.02-3.46-17-3.39-6.81-8.99-11.58-15.77-13.41l-1.73-.47-1.79-.02-54.77-.52c.08-3.21-.09-6.64-.86-10.06-2.28-10.13-9.27-16.84-19.16-18.4-2.85-.45-6.92-.55-9.84-.55-1.69,0-5.96.04-8.95.39-10.07,1.19-17.66,7.67-20.83,17.78-1.17,3.73-1.64,7.56-1.82,11.04-1.39-.05-2.81-.09-4.26-.09s-3.94,0-6.83.39c-.68-7.62-3.48-14.18-7.97-18.41-.97-.92-2.12-1.79-5.1-3.55-2.7-1.59-5.49-3.24-9.54-3.24h-7.5v-8.5c0-4.07-1.56-7.74-5.37-12.69-4.29-5.56-7.11-7.05-8.17-7.61-5.22-2.76-11.46-3.34-15.77-3.34h0c-18.66,0-31.69,9.72-31.69,23.64v8.98c-3.36-.06-6.9-.25-10.61-.46-4.59-.25-9.34-.52-14.04-.52-3.94,0-7.39.19-10.56.57-10.26,1.24-18.34,8.4-21.6,19.16-.21.7-.4,1.41-.57,2.15-.08-6.32-.31-12.59-.74-18.77l-.03-.42-.05-.42c-2.05-15.78-13.2-25.21-29.82-25.21-2.97,0-6.09.28-9.55.86-11.65,1.95-19.83,10.48-21.34,22.26l-.16,1.25.07,1.26c1.03,19.98.42,41.23-.18,61.78-.67,22.95-1.36,46.68.17,69.5,2.4,35.72,20.76,57.05,49.11,57.05,3.05,0,6.24-.25,9.48-.76,6.39-.99,11.9-4.17,15.88-9.1,11.28,11.57,27.53,18.14,45.13,18.14,13.22,0,26.1-3.88,36.28-10.92,11.73-8.12,19.46-19.88,22.37-34.03.94-4.58,1.26-8.85,1.45-12.72,4.16-.14,7.82-.7,11.12-1.69,5.52-1.66,10.01-4.54,13.36-8.57,5.69-6.83,7.49-16.15,5.35-27.69-1.37-7.39-9.23-21.19-22.03-21.19h-7.5v-23h4.5c.83,0,1.69-.08,2.57-.23.41,3.19,1.22,6.3,2.43,9.15,3.34,7.88,9.63,13.28,17.25,14.81,2.45.49,5.34.71,9.36.71h1.06c-3.49,25.34-8.6,57.51-22.28,73.47-1.57,1.83-1.97,1.98-4.19,2.83-2.29.87-5.74,2.19-9.58,5.05-4.67,3.49-7.98,8.78-9.58,15.29-1.28,5.21-1.34,10.97-.18,16.24,2.43,11.04,9.8,18.87,19.71,20.95,3.23.68,6.49,1.03,9.69,1.03,11.14,0,21.6-4.05,31.07-12.05,7.18-6.06,13.82-14.49,19.73-25.04,2.9-5.17,5.46-10.55,7.7-15.86,2.05,19.2,12.82,33.55,30.36,40.45,14.27,5.62,41.35,6.05,49.31,6.05,7.51,0,14.36-.33,19.28-.92,14-1.69,24.11-14.04,24.04-29.37-.03-6.75-2.12-13.3-5.89-18.42-4.59-6.25-11.45-10.17-19.3-11.04-1.86-.21-4.06-.3-6.9-.3-3.09,0-6.59.11-10.28.23-3.99.13-8.12.26-12,.26-2.99,0-5.26-.08-6.98-.2,1.3-6.12,3.47-16.95-4.13-25.45.24-.02.49-.05.73-.07,4.98-.47,9.68-.91,13.87-.91,2.72,0,4.94.19,6.63.56,1.12,5.5,4.28,18.68,24.31,20.59,2.13.2,4.19.31,6.11.31,11.47,0,19.98-3.65,25.29-10.85,0,0,.02-.03.03-.04-.31,8.66,1.78,16.04,6.12,21.52,4.16,5.25,10.08,8.43,17.12,9.19l1.32.14,1.32-.11c2.9-.24,6.27-.35,10.29-.35,5.28,0,10.96.19,16.98.4,6.55.22,13.32.45,20.17.45,14.02,0,32.1-.84,47.68-7.4,17.66-7.43,28.96-20.74,33.57-39.54,2.1-8.54,2.76-16.98,2.04-25.04,9.95,10.51,21.52,20.25,32.72,29.68,10.89,9.17,22.16,18.65,31.26,28.36l.36.38.39.36c9.87,9.06,24.14,13.46,43.63,13.46,4.67,0,9.62-.25,15.15-.77,13.8-1.29,23.94-11.86,25.22-26.3,1.3-14.63-6.97-27.81-19.66-31.33-3.56-.99-7.18-1.45-11.4-1.45-1.76,0-3.41.08-4.87.15-1.22.06-2.36.11-3.37.11-2.53,0-3.42-.34-4.57-1.16-9.31-6.61-18.38-15.5-27.99-24.91-8.31-8.14-16.87-16.52-25.96-23.69.63-.56,1.25-1.1,1.77-1.54,1.16-1,2.36-2.04,3.52-3.12,11.23-10.45,23.16-20.78,34.69-30.77,5.62-4.86,11.4-9.88,17.1-14.89.5-.07,1.37-.14,2.81-.14,1.21,0,2.53.05,3.94.1,1.58.06,3.22.12,4.91.12,3.95,0,14.45,0,21.88-7.91,7.17-7.63,8-19.78,6.53-27.87-1.7-9.4-6.55-16.51-13.64-20-5.33-2.63-12.83-3.96-22.3-3.96-5.11,0-31.22.6-43.63,12.51l-.07.07-.07.07c-10.58,10.46-22.33,20.48-33.7,30.18-10.72,9.15-21.81,18.6-32.23,28.65-11.71,11.3-18.16,23.27-19.18,35.58-.06.74-.1,1.48-.13,2.22-9.85-10.23-23.34-17.02-38.94-19.42-7.59-1.17-15.93-1.71-26.25-1.71-6.27,0-12.59.2-18.71.39-6.14.19-11.93.37-17.69.37h-.98c.73-5.22,1.56-11.12,1.26-16.6-.27-5.09-1.51-9.01-3.18-12.03.85,0,1.72.02,2.61.02,6.87,0,13.99-.39,20.88-.78,6.85-.38,13.32-.74,19.51-.74,5.35,0,9.79.28,13.55.85,1.31,5.62,4.94,18.86,24.79,20.76,2.2.21,4.3.32,6.25.32,10.89,0,19.04-3.38,24.21-10.03,7.64-9.83,5.54-22.7,3.3-31.53-9.11-35.84-46.64-37.83-60.78-38.58-5.86-.31-19.64-.77-33.57-.77h0v.02ZM176.37,232.31c-1.32-18.7-.59-39.06.13-58.81.32-8.78.64-17.7.79-26.61,1.24,5.47,3.89,10.68,8.38,14.54,1.01.87,2.37,1.89,6.87,4.05,3.77,1.81,6.3,2.91,9.68,2.91h32.5v23h-8.5c-23.2,0-43.99,20.55-49.85,40.91h0ZM514.5,228.72c0-7.13-1.98-13.5-2.89-16.47-1.15-3.73-2.66-7.18-4.51-10.33,3.88,1.77,8.15,2.93,12.73,3.39,5.21.53,10.9.78,17.39.78,7.67,0,15.52-.36,23.1-.7,7.62-.35,14.81-.68,21.87-.68,5.88,0,10.92.24,15.4.72,4.45.48,7.22,2.55,7.6,5.68.31,2.51-1.08,4.68-3.85,6.1-3.78.31-7.96.46-12.71.46-5.66,0-11.6-.21-17.35-.42-5.95-.21-12.11-.43-18.19-.43-5.6,0-10.54.19-15.08.58-4.32.37-10.72,1.26-16.4,4.77-2.31,1.42-4.9,3.52-7.09,6.55h-.02ZM387.87,233.07c.45-2.11.87-4.22,1.27-6.33,1.06,1.28,2.24,2.44,3.52,3.49-1.55.68-3.17,1.6-4.79,2.85h0Z"/>
  </g>
  <g>
    <path class="st4" d="M681.72,425.4v16h29c-.42-8.36-3.63-30.41,1.96-36.54,5.15-5.64,24-4.99,26.59,3.48l1.45,33.05h46.5c4.83,0,7.98,10.15,7.53,14.52s-4.91,10.48-9.53,10.48h-42.5l3.01,21c1.8,1.88,13.72-13.77,15.5-14.99,9.51-6.57,23.88,4.67,21.03,15.03-2.38,8.65-19.07,21.8-25.07,28.99-1.74,3.21,5.36,8.78,8.1,8.97,10.37.69,7.27-22.2,21.45-18.54,21.33,5.51,4.05,45.47-14.57,50.49-17.65,4.76-30.79-6.2-40.08-19.81-1.91-.37-21.78,15.96-29.1,16.66-9.2.88-20.81-15.51-13.68-23.72,3.81-4.38,30.22-15.42,31.28-19.76l-7.85-44.31h-31v15c6.76-.84,21.28-7.5,24.54,1.96,7.11,20.66-10.06,19.27-24.44,23.14-1.28,17.07,5.06,45.48-17.68,49.82-6.93,1.32-27.86,2.4-33.4-1.43-5.33-3.68-6.98-17.61-3.49-22.46,4.8-6.68,17.82.42,23.48-5.52v-15.5c-11.27,2.29-30.41,9.43-32.05-7.45-2.19-22.58,18.2-13.13,32.62-18.48l-.57-19.07h-24.5c-9.89,0-13.86-14.79-7.05-22.05.63-.67,3.55-2.95,4.05-2.95h28.5v-11c-6.82.09-15.8,2.25-22.48.98-7.81-1.49-9.34-18.22-2.27-21.22,10.66-1.5,21.44-2.29,32.08-3.92,8.52-1.3,21.82-5.37,29.44-5.56,6.75-.17,10.73,2.72,11.99,9.46,2.65,14.15-8.23,13.46-18.76,15.26h-.03ZM627.22,300.4c-1.09,0-6.07,2.79-7.06,3.94-4.75,5.48-2.64,21.06,5.06,21.06h62.5v11h-49.5c-10.79,0-12.97,16.23-5.99,20.99.71.49,3.52,2.01,3.99,2.01h51.5v11h-64.5c-1.16,0-6.04,2.68-6.94,4.06-4.37,6.69-1.47,21.83,8.89,21l161.99-.12c14.08-2.17,9.86-24.94,1.06-24.94h-65.5v-11h51.5c8.27,0,11.48-16.44,4.06-21.06s-44.75-1.1-55.55-.94c1.1-3.9-2.11-9.31.49-12h62c9.73,0,10.73-25-2-25h-23.5c1.53-5.41,6.19-8.94,4.81-15.27-1.71-7.85-18.51-11.02-25.1-9.52-7.82,1.78-11.57,18.81-16.34,24.65l-35.76.2c-6.45-16.27-11.33-30.39-31.88-22.84-13.66,5.02-10.36,12.62-3.73,22.77h-24.5ZM530.46,329.63h76.53c13.05,2.05,12.86,26.76.17,28.7l-77.89.02c-11.3-2.08-12.26-26.27,1.19-28.72ZM595.78,412.84c-7.86-1.64-43.97-1.51-52.47-.36-15.33,2.09-13.34,25.34-2.88,27.7,17.04-.71,36.02,1.67,52.83.25,2.29-.19,6.47-.91,8.18-2.33,6.27-5.23,5.08-23.02-5.66-25.26h0ZM540.43,316.18l55.73.15c11.28-1.78,12.06-24.81.63-27.51-16.46,1.07-39.64-3.01-55.33-.19-12.41,2.23-11.28,25.26-1.03,27.55ZM539.67,398.95l56.5.39c10.8-1.7,12.76-24.06.37-27.26-6.92-1.79-45.16-1.63-53.05-.42-14.19,2.16-14.47,20.95-3.81,27.29h-.01ZM607.77,529.95c-1.96,20.39-36.33,9.86-50.05,12.44-2.86.05,0,0-7.73-.16-6.93-.14-19.83,1.05-19.81-6.72.82-24.53-2.66-37.48-.5-61.66.91-10.15,8.47-18.11,18.65-19.35,8.33-1.01,40.2-1.05,47.11,1.67,6.41,2.52,11.32,10.08,12.2,16.8,1.59,12.2,1.34,44.4.14,56.97h-.01ZM579.72,511.9c0,.33-1.32,1.52-1,2.5h-21v-29.5c0-3.42,17.18-3.3,19.57-1.57.45.33,2.43,3.33,2.43,3.57v25Z"/>
    <path class="st2" d="M743.3,275.24c7.74,0,19.8,3.29,21.23,9.88,1.38,6.33-3.28,9.86-4.81,15.27h23.5c12.73,0,11.73,25,2,25h-62c-2.61,2.69.61,8.1-.49,12,6.58-.09,22.92-1.51,36.43-1.51,8.64,0,16.12.58,19.13,2.45,7.42,4.62,4.22,21.06-4.06,21.06h-51.5v11h65.5c8.8,0,13.02,22.76-1.06,24.94l-161.99.12c-.28.02-.54.03-.81.03-9.7,0-12.34-14.52-8.08-21.03.9-1.38,5.79-4.06,6.94-4.06h64.5v-11h-51.5c-.47,0-3.28-1.52-3.99-2.01-6.98-4.76-4.8-20.99,5.99-20.99h49.5v-11h-62.5c-7.7,0-9.81-15.58-5.06-21.06.99-1.15,5.97-3.94,7.06-3.94h24.5c-6.64-10.16-9.94-17.75,3.73-22.77,3.92-1.44,7.27-2.09,10.16-2.09,12.31,0,16.5,11.76,21.72,24.93l35.76-.2c4.78-5.84,8.53-22.87,16.34-24.65,1.06-.24,2.38-.36,3.87-.36M555.31,287.62c11.45,0,24.29,1.39,35.25,1.39,2.16,0,4.24-.05,6.23-.18,11.44,2.7,10.65,25.73-.63,27.51l-55.73-.15c-10.26-2.3-11.38-25.32,1.03-27.55,4.18-.75,8.88-1.01,13.85-1.01M606.99,329.63c13.05,2.05,12.86,26.76.17,28.7l-77.89.02c-11.3-2.08-12.26-26.27,1.19-28.72h76.53M568.84,370.74c11.92,0,24.08.4,27.7,1.34,12.39,3.2,10.43,25.56-.37,27.26l-56.5-.39c-10.66-6.35-10.38-25.13,3.81-27.29,3.77-.57,14.46-.91,25.36-.91M689.04,400.66c6.42,0,10.21,2.92,11.44,9.47,2.65,14.15-8.23,13.46-18.76,15.26v16h29c-.42-8.36-3.63-30.41,1.96-36.54,2.2-2.4,6.88-3.66,11.73-3.66,6.53,0,13.37,2.29,14.86,7.15l1.45,33.05h46.5c4.83,0,7.98,10.15,7.53,14.52-.47,4.51-4.91,10.48-9.53,10.48h-42.5l3.01,21c.1.11.24.16.4.16,2.72,0,13.42-13.99,15.1-15.15,1.97-1.36,4.14-1.96,6.33-1.96,8.39,0,16.96,8.77,14.7,16.99-2.38,8.65-19.07,21.8-25.07,28.99-1.74,3.21,5.36,8.78,8.1,8.97.15.01.31.02.45.02,9.09,0,7.38-18.95,18.11-18.95.87,0,1.83.13,2.88.4,21.33,5.51,4.05,45.47-14.57,50.49-2.86.77-5.61,1.13-8.24,1.13-13.58,0-24.05-9.54-31.84-20.93h-.07c-2.28,0-21.79,15.97-29.03,16.66-.24.02-.48.03-.72.03-9.07,0-19.91-15.75-12.97-23.75,3.81-4.38,30.22-15.42,31.28-19.76l-7.85-44.31h-31v15c4.02-.5,10.79-3.06,16.3-3.06,3.75,0,6.92,1.19,8.24,5.02,7.11,20.66-10.06,19.27-24.44,23.14-1.28,17.07,5.06,45.48-17.68,49.82-3.34.64-9.94,1.22-16.5,1.22-7.04,0-14.03-.67-16.9-2.65-5.33-3.68-6.98-17.61-3.49-22.46,1.88-2.62,5.02-3.12,8.49-3.12,2.16,0,4.45.2,6.63.2,3.26,0,6.3-.43,8.36-2.6v-15.5c-5.59,1.14-13.12,3.47-19.48,3.47s-11.74-2.4-12.56-10.91c-2.19-22.58,18.2-13.13,32.62-18.48l-.57-19.07h-24.5c-9.89,0-13.86-14.79-7.05-22.05.63-.67,3.55-2.95,4.05-2.95h28.5v-11c-5.28.07-11.85,1.38-17.65,1.38-1.69,0-3.32-.11-4.83-.4-7.81-1.49-9.34-18.22-2.27-21.22,10.66-1.5,21.44-2.29,32.08-3.92,8.52-1.3,21.82-5.37,29.44-5.56h.55M568.42,411.61c11.52,0,23.27.37,27.36,1.23,10.75,2.24,11.93,20.04,5.66,25.26-1.71,1.42-5.89,2.14-8.18,2.33-4,.34-8.12.46-12.31.46-11.04,0-22.54-.85-33.5-.85-2.37,0-4.71.04-7.02.14-10.46-2.36-12.45-25.62,2.88-27.7,4.08-.55,14.49-.87,25.11-.87M565.61,453.87c11.86,0,25.57.63,29.83,2.31,6.41,2.52,11.32,10.08,12.2,16.8,1.59,12.2,1.34,44.4.14,56.97-1.04,10.79-11.14,12.92-22.46,12.92-7.42,0-15.35-.92-21.61-.92-2.25,0-4.27.12-5.98.44-.71.01-1.07.02-1.32.02-.78,0-.59-.06-6.41-.18-.51-.01-1.06-.01-1.63-.01h-2.7c-6.92,0-15.5-.38-15.48-6.72.82-24.53-2.66-37.48-.5-61.66.91-10.15,8.47-18.11,18.65-19.35,3.2-.39,9.88-.63,17.28-.63M557.72,514.4h21c-.32-.98,1-2.17,1-2.5v-25c0-.24-1.97-3.25-2.43-3.57-1.02-.74-4.75-1.18-8.68-1.18-5.26,0-10.89.8-10.89,2.76v29.5M743.3,261.24c-2.56,0-4.91.24-6.98.71-11.83,2.7-17.16,14.58-21.05,23.25-.15.34-.32.71-.49,1.09l-18.04.1c-1.87-4.31-3.99-8.5-6.71-12.17-7.77-10.5-17.57-12.71-24.42-12.71-4.68,0-9.59.97-14.99,2.95-9.28,3.41-15.19,8.77-17.57,15.94-.67,2.03-1.01,4.03-1.08,5.98h-4.75c-3.17,0-6.18.96-10.4,3.32-.06.04-.13.07-.19.11-3.07-7.41-8.96-12.81-16.62-14.62l-2.04-.48-2.09.14c-1.59.1-3.33.15-5.32.15-5.02,0-10.56-.32-16.44-.66-6.21-.36-12.62-.73-18.82-.73s-11.71.4-16.33,1.23c-11.99,2.15-20.24,12.9-20.53,26.74-.13,5.97,1.2,11.5,3.64,16.08-9.47,4.28-15.5,14.26-15.51,26.51-.01,12.28,6.13,22.5,15.42,26.5-1.53,2.62-2.64,5.57-3.27,8.76-1.88,9.61,1.16,19.61,7.57,26.51-4.8,4.77-7.76,11.46-8.09,19.19-.42,9.68,3.3,18.44,9.51,23.79-6.71,5.82-11.15,14.16-12,23.67-1.3,14.52-.69,25.45-.11,36.03.44,7.97.9,16.21.56,26.41v.44c-.01,5.21,1.96,10.07,5.56,13.67,7.06,7.07,18.03,7.07,23.92,7.07h4.04c3.71.08,4.84.12,5.38.15.56.02.84.03,1.31.03.3,0,.72,0,1.56-.02l1.18-.02,1.16-.22c.32-.06,1.28-.2,3.4-.2,2.56,0,5.7.2,9.03.4,4.07.25,8.28.51,12.58.51,8.83,0,15.49-1.18,20.96-3.71,2.28-1.05,4.34-2.34,6.15-3.84,1.15,5.1,3.89,12.61,10.36,17.08,3.46,2.39,9.41,5.13,24.85,5.13,6.85,0,14.54-.59,19.13-1.47,7.25-1.38,13.26-4.49,17.88-9.18.3.27.6.53.9.78,5.14,4.29,10.92,6.56,16.72,6.56.68,0,1.37-.03,2.05-.1,6.97-.67,14.45-5.2,24.67-12.14,2.79,2.94,5.69,5.5,8.67,7.64,8.14,5.86,16.98,8.83,26.27,8.83,3.91,0,7.91-.54,11.88-1.61,9.28-2.5,18.17-9.67,25.03-20.19,6.24-9.58,9.8-20.48,9.75-29.91-.06-12.09-6.13-21.71-16.11-26.02.52-1.19.95-2.39,1.29-3.6,1.22-4.46,1.13-9.13-.18-13.6,2.41-1.4,4.65-3.29,6.64-5.63,3.58-4.22,5.94-9.52,6.46-14.54.68-6.54-1.76-17.01-7.63-23.53-3.74-4.15-8.65-6.44-13.82-6.44h-33.1l-.79-18.04,33.84-.02h1.07l1.06-.16c13.44-2.08,22.04-13.75,20.92-28.39-.87-11.37-7.03-20.23-15.48-23.26.19-.55.37-1.11.54-1.68,1.87-6.55,1.46-13.21-.83-18.79,3.44-1.87,6.4-4.8,8.5-8.57,2.39-4.28,3.71-9.66,3.71-15.16,0-4.26-.77-10.56-4.45-16.36-4.26-6.71-11.18-10.56-18.97-10.56h-4.45c-.06-1.35-.24-2.76-.56-4.25-.96-4.42-4.42-12.56-16.78-17.45-5.54-2.19-12.15-3.45-18.13-3.45h0v.03ZM611.28,406.21c.17-.18.34-.37.51-.56.05.03.1.07.15.1-.14.24-.28.48-.41.72-.08-.09-.17-.18-.25-.27h0Z"/>
  </g>
  <path class="st2" d="M984.24,183.89h0c-16.81,0-131.12,1.54-131.12,1.54l-.88-.06-.88.05c-10.7.67-19.72,4.87-26.1,12.15-13.4,15.29-11.68,39.99-10.55,56.33.89,12.74,4.78,22.17,11.88,28.66-16.24,10.18-17.42,29.76-17.88,37.44-1.4,23.13-1.4,55.52,0,78.77.47,7.83,1.38,22.92,12.56,33.04-3.31.72-6.79,1.63-10.06,2.88-11.77,4.52-15.7,11.91-16.92,17.32-2.35,10.4.06,22.54,6.14,30.93,4.81,6.64,11.71,10.7,19.43,11.43,1.15.11,2.38.16,3.64.16,17.26,0,47.17-11.08,63.47-17.69,2.89-1.17,9.93-4.17,16.49-7.22,13.71-6.37,17.06-9.04,19.41-12.61,2.16-3.29,4.27-8.26,3.58-14.63h24.19c-.23,2.2-.15,4.49.35,6.87.9,4.24,3.54,10.27,11.02,14.9,16.15,9.97,64.82,27.55,82.67,29.86,2.81.36,5.3.54,7.62.54,14.84,0,24.98-7.66,29.32-22.15,2.07-6.89,4.2-17.1-1.07-26.12-5.52-9.44-15.38-11.66-23.31-13.44-.72-.16-1.46-.33-2.19-.5,2.39-2.11,4.46-4.55,6.21-7.31,3.58-5.66,5.67-12.52,6.39-20.97,2-23.33,2-65.92,0-89.35-1.23-14.43-7.26-25.36-17.17-31.82.96-.89,1.88-1.88,2.76-2.96,3.92-4.8,7.71-16.05,8.27-20.32,1.16-8.88,1.48-38.23-2.38-49.46-7.72-22.47-28.02-24.2-34.69-24.76-12-1.02-25.15-1.52-40.21-1.52h0v.02Z"/>
  <g>
    <path class="st4" d="M760.43,400.61c7.01-1.6,12.26,3.01,17.3,7.27s13.09,11.63,9.76,18.75-13.08,14.29-20.73,9.23c-3.31-6.46-18.36-15.28-18.12-21.93.17-4.75,7.26-12.28,11.79-13.32Z"/>
    <path class="st2" d="M763.26,400.28c5.64,0,10.14,3.93,14.48,7.6,5.07,4.29,13.09,11.63,9.76,18.75-2.53,5.42-8.87,10.92-15.13,10.92-1.91,0-3.81-.51-5.6-1.69-3.31-6.46-18.36-15.28-18.12-21.93.17-4.75,7.26-12.28,11.79-13.32.97-.22,1.92-.33,2.83-.33M763.26,386.28h0c-1.98,0-3.98.23-5.95.68-9.92,2.27-22.25,14.58-22.67,26.47-.36,10.37,7.5,17.53,14.44,23.84,1.81,1.65,4.51,4.11,5.34,5.21l1.54,3.02,3.07,2.03c3.97,2.63,8.58,4.01,13.32,4.01,13,0,23.53-9.84,27.81-18.99,2.08-4.45,4.48-13.51-2.84-24.26-3.1-4.54-7.07-8.16-10.55-11.11l-.3-.26c-2.42-2.05-5.17-4.38-8.49-6.36-4.78-2.85-9.74-4.3-14.73-4.3h0v.02Z"/>
  </g>
  <path class="st4" d="M861.18,279.44s156.55.06,156.08,0c8.41-1.34,19.23-1.11,25.14-8.35,1.68-2.06,4.87-10.54,5.23-13.28,1.14-8.67.92-35.33-1.74-43.09-3.78-11.01-11.49-14.42-22.64-15.36-54.61-4.64-130.02-.79-171.03.05-27.14,1.69-24.97,33.24-23.56,53.54,1.51,21.72,12.84,25.32,32.5,26.5h.02Z"/>
  <path class="st2" d="M873.44,226.61l129.72-.15c6.06.47,6.23,8.72,6.18,13.6-.06,5.52-.38,11.06-7.09,11.36l-128.96-.09c-8.44-.92-8.06-22.98.15-24.72h0Z"/>
  <path class="st4" d="M1068.22,468.39c-3.42,11.42-10.7,13.18-21.74,11.75-16.43-2.12-62.89-19.11-77.11-27.89-10.59-6.54-1.19-16.63,3.35-23.85h-68c2.5,6.2,11.19,13.71,6.44,20.94-1.87,2.84-24.61,12.58-29.45,14.54-14.06,5.7-46.38,17.9-60.53,16.56-11.04-1.05-15.39-15.85-13.24-25.34,2.03-8.98,21.11-9.97,28.81-12.19,10.21-2.95,23.8-6.94,33.03-11.97,1.12-.61,2.72-1.11,2.95-2.55h-25.5c-1.83,0-10.71-3.16-12.73-4.27-9.87-5.38-11.19-15.89-11.81-26.19-1.36-22.56-1.36-54.53,0-77.08,1.07-17.67,6.14-29.05,25.5-30.5,0,0,181.73-.03,181.08,0,15.53,1.34,23.16,10.4,24.45,25.55,1.92,22.55,1.93,64.43,0,86.97-.96,11.28-4.96,20.02-16.43,23.57-1.54.48-7.94,1.94-9.06,1.94-7.25,0-14.79.35-22,0-.3-.01-1.35-.04-2.27-.14l-.23,1.13c14.34,6.04,28.96,11.31,43.97,15.55,13.94,3.93,26.77,2.62,20.53,23.47h-.01Z"/>
  <path class="st2" d="M870.22,316.4l136.05-.05c8.5.78,9.13,5.31,8.45,13.05h-153c-.54-7.67.14-12.05,8.5-13Z"/>
  <rect class="st2" x="861.72" y="352.4" width="153" height="13"/>
  <path class="st2" d="M874.18,402.44c-10.65-.75-13.16-2.73-12.46-14.04h153c.69,8.78-.08,12.95-9.5,14l-131.05.04h.01Z"/>
</svg>